<svg width="65" height="24" viewBox="0 0 65 24" fill="none" xmlns="http://www.w3.org/2000/svg">
<circle cx="12" cy="12" r="11.5" stroke="white"/>
<path d="M27.0088 15V7.89062H29.1084C29.7367 7.89062 30.2933 8.0306 30.7783 8.31055C31.2666 8.59049 31.6442 8.98763 31.9111 9.50195C32.1781 10.0163 32.3115 10.6055 32.3115 11.2695V11.626C32.3115 12.2998 32.1764 12.8923 31.9062 13.4033C31.6393 13.9144 31.2568 14.3083 30.7588 14.585C30.264 14.8617 29.696 15 29.0547 15H27.0088ZM28.2441 8.88672V14.0137H29.0498C29.6976 14.0137 30.194 13.8118 30.5391 13.4082C30.8874 13.0013 31.0648 12.4186 31.0713 11.6602V11.2646C31.0713 10.4932 30.9036 9.90397 30.5684 9.49707C30.2331 9.09017 29.7464 8.88672 29.1084 8.88672H28.2441ZM39.2158 11.6309C39.2158 12.3275 39.0954 12.9395 38.8545 13.4668C38.6136 13.9909 38.2686 14.3945 37.8193 14.6777C37.3734 14.9577 36.859 15.0977 36.2764 15.0977C35.7002 15.0977 35.1859 14.9577 34.7334 14.6777C34.2842 14.3945 33.9359 13.9925 33.6885 13.4717C33.4443 12.9508 33.3206 12.3503 33.3174 11.6699V11.2695C33.3174 10.5762 33.4395 9.96419 33.6836 9.43359C33.931 8.90299 34.2777 8.49772 34.7236 8.21777C35.1729 7.93457 35.6872 7.79297 36.2666 7.79297C36.846 7.79297 37.3587 7.93294 37.8047 8.21289C38.2539 8.48958 38.6006 8.88997 38.8447 9.41406C39.0889 9.9349 39.2126 10.542 39.2158 11.2354V11.6309ZM37.9805 11.2598C37.9805 10.472 37.8307 9.86816 37.5312 9.44824C37.235 9.02832 36.8135 8.81836 36.2666 8.81836C35.7327 8.81836 35.3145 9.02832 35.0117 9.44824C34.7122 9.86491 34.5592 10.4557 34.5527 11.2207V11.6309C34.5527 12.4121 34.7041 13.016 35.0068 13.4424C35.3128 13.8688 35.736 14.082 36.2764 14.082C36.8232 14.082 37.2432 13.8737 37.5361 13.457C37.8324 13.0404 37.9805 12.4316 37.9805 11.6309V11.2598ZM46.0859 15H44.8506L41.6816 9.95605V15H40.4463V7.89062H41.6816L44.8604 12.9541V7.89062H46.0859V15ZM51.6133 13.3447H48.8594L48.2832 15H46.999L49.6846 7.89062H50.793L53.4834 15H52.1943L51.6133 13.3447ZM49.2061 12.3486H51.2666L50.2363 9.39941L49.2061 12.3486ZM58.8447 8.88672H56.6279V15H55.4023V8.88672H53.2051V7.89062H58.8447V8.88672ZM63.9375 11.8262H61.0176V14.0137H64.4307V15H59.7822V7.89062H64.3965V8.88672H61.0176V10.8496H63.9375V11.8262Z" fill="white"/>
<path d="M14.1982 15.6602C14.1982 15.1621 14.04 14.752 13.7236 14.4297C13.4072 14.1016 12.8799 13.8086 12.1416 13.5508C11.4033 13.2871 10.8291 13.0439 10.4189 12.8213C9.05371 12.0889 8.37109 11.0049 8.37109 9.56934C8.37109 8.59668 8.66699 7.79687 9.25879 7.16992C9.85059 6.54297 10.6533 6.1709 11.667 6.05371V4.1377H13.0732V6.07129C14.0928 6.21777 14.8809 6.65137 15.4375 7.37207C15.9941 8.08691 16.2725 9.01855 16.2725 10.167H14.1455C14.1455 9.42871 13.9785 8.84863 13.6445 8.42676C13.3164 7.99902 12.8682 7.78516 12.2998 7.78516C11.7373 7.78516 11.2979 7.9375 10.9814 8.24219C10.665 8.54688 10.5068 8.9834 10.5068 9.55176C10.5068 10.0615 10.6621 10.4717 10.9727 10.7822C11.2891 11.0869 11.8223 11.377 12.5723 11.6523C13.3223 11.9277 13.9111 12.1826 14.3389 12.417C14.7666 12.6514 15.127 12.9209 15.4199 13.2256C15.7129 13.5244 15.9385 13.8701 16.0967 14.2627C16.2549 14.6553 16.334 15.1152 16.334 15.6426C16.334 16.6328 16.0293 17.4355 15.4199 18.0508C14.8164 18.666 13.9727 19.0293 12.8887 19.1406V20.8545H11.4912V19.1494C10.3311 19.0205 9.4375 18.6045 8.81055 17.9014C8.18945 17.1982 7.87891 16.2666 7.87891 15.1064H10.0146C10.0146 15.8447 10.1992 16.416 10.5684 16.8203C10.9434 17.2246 11.4707 17.4268 12.1504 17.4268C12.8184 17.4268 13.3252 17.2656 13.6709 16.9434C14.0225 16.6211 14.1982 16.1934 14.1982 15.6602Z" fill="white"/>
</svg>
