<svg width="99" height="24" viewBox="0 0 99 24" fill="none" xmlns="http://www.w3.org/2000/svg">
<circle cx="12" cy="12" r="11.5" stroke="#4BD8B5"/>
<path d="M16 12L10 15.4641V8.5359L16 12Z" fill="#4BD8B5"/>
<path d="M33.4395 13.2422L34.5332 7.89062H35.7588L34.1182 15H32.9365L31.584 9.80957L30.2021 15H29.0156L27.375 7.89062H28.6006L29.7041 13.2324L31.0615 7.89062H32.0967L33.4395 13.2422ZM40.4268 13.3447H37.6729L37.0967 15H35.8125L38.498 7.89062H39.6064L42.2969 15H41.0078L40.4268 13.3447ZM38.0195 12.3486H40.0801L39.0498 9.39941L38.0195 12.3486ZM47.6582 8.88672H45.4414V15H44.2158V8.88672H42.0186V7.89062H47.6582V8.88672ZM53.8838 12.6855C53.8122 13.444 53.5322 14.0365 53.0439 14.4629C52.5557 14.8861 51.9062 15.0977 51.0957 15.0977C50.5293 15.0977 50.0296 14.9642 49.5967 14.6973C49.167 14.4271 48.835 14.0446 48.6006 13.5498C48.3662 13.055 48.2441 12.4805 48.2344 11.8262V11.1621C48.2344 10.4915 48.3532 9.90072 48.5908 9.38965C48.8285 8.87858 49.1686 8.4847 49.6113 8.20801C50.0573 7.93132 50.5716 7.79297 51.1543 7.79297C51.9388 7.79297 52.5703 8.00618 53.0488 8.43262C53.5273 8.85905 53.8057 9.46126 53.8838 10.2393H52.6533C52.5947 9.72819 52.445 9.36035 52.2041 9.13574C51.9665 8.90788 51.6165 8.79395 51.1543 8.79395C50.6172 8.79395 50.2038 8.99089 49.9141 9.38477C49.6276 9.77539 49.4811 10.3499 49.4746 11.1084V11.7383C49.4746 12.5065 49.6113 13.0924 49.8848 13.4961C50.1615 13.8997 50.5651 14.1016 51.0957 14.1016C51.5807 14.1016 51.9453 13.9925 52.1895 13.7744C52.4336 13.5563 52.5882 13.1934 52.6533 12.6855H53.8838ZM60.6367 15H59.4062V11.8408H56.2275V15H54.9922V7.89062H56.2275V10.8496H59.4062V7.89062H60.6367V15ZM70.2656 11.6309C70.2656 12.3275 70.1452 12.9395 69.9043 13.4668C69.6634 13.9909 69.3184 14.3945 68.8691 14.6777C68.4232 14.9577 67.9089 15.0977 67.3262 15.0977C66.75 15.0977 66.2357 14.9577 65.7832 14.6777C65.334 14.3945 64.9857 13.9925 64.7383 13.4717C64.4941 12.9508 64.3704 12.3503 64.3672 11.6699V11.2695C64.3672 10.5762 64.4893 9.96419 64.7334 9.43359C64.9808 8.90299 65.3275 8.49772 65.7734 8.21777C66.2227 7.93457 66.737 7.79297 67.3164 7.79297C67.8958 7.79297 68.4085 7.93294 68.8545 8.21289C69.3037 8.48958 69.6504 8.88997 69.8945 9.41406C70.1387 9.9349 70.2624 10.542 70.2656 11.2354V11.6309ZM69.0303 11.2598C69.0303 10.472 68.8805 9.86816 68.5811 9.44824C68.2848 9.02832 67.8633 8.81836 67.3164 8.81836C66.7826 8.81836 66.3643 9.02832 66.0615 9.44824C65.762 9.86491 65.609 10.4557 65.6025 11.2207V11.6309C65.6025 12.4121 65.7539 13.016 66.0566 13.4424C66.3626 13.8688 66.7858 14.082 67.3262 14.082C67.873 14.082 68.293 13.8737 68.5859 13.457C68.8822 13.0404 69.0303 12.4316 69.0303 11.6309V11.2598ZM77.1357 15H75.9004L72.7314 9.95605V15H71.4961V7.89062H72.7314L75.9102 12.9541V7.89062H77.1357V15ZM79.8311 14.0137H83.0586V15H78.5957V7.89062H79.8311V14.0137ZM85.3096 15H84.0791V7.89062H85.3096V15ZM92.4678 15H91.2324L88.0635 9.95605V15H86.8281V7.89062H88.0635L91.2422 12.9541V7.89062H92.4678V15ZM98.083 11.8262H95.1631V14.0137H98.5762V15H93.9277V7.89062H98.542V8.88672H95.1631V10.8496H98.083V11.8262Z" fill="#4BD8B5"/>
</svg>
