<svg
  height="512pt"
  viewBox="0 0 512 512"
  width="512pt"
  xmlns="http://www.w3.org/2000/svg"><path
  d="m330.667969 256c0 41.238281-33.429688 74.667969-74.667969 74.667969s-74.667969-33.429688-74.667969-74.667969 33.429688-74.667969 74.667969-74.667969 74.667969 33.429688 74.667969 74.667969zm0 0" fill="#fff"/><path
  d="m256 0c-141.164062 0-256 114.835938-256 256s114.835938 256 256 256 256-114.835938 256-256-114.835938-256-256-256zm138.667969 256c0 7.1875-.535157 14.355469-1.621094 21.332031l35.21875 27.5c8.34375 6.484375 10.644531 18.304688 5.355469 27.476563l-22.742188 39.425781c-5.269531 9.152344-16.574218 13.078125-26.429687 9.128906l-41.75-16.746093c-11.03125 8.960937-23.46875 16.171874-36.523438 21.183593l-6.3125 44.394531c-1.496093 10.453126-10.582031 18.324219-21.121093 18.324219h-45.484376c-10.558593 0-19.625-7.871093-21.121093-18.324219l-6.3125-44.371093c-13.035157-4.949219-25.34375-12.054688-36.695313-21.226563l-41.554687 16.746094c-9.792969 3.945312-21.183594 0-26.453125-9.132812l-22.742188-39.421876c-5.269531-9.152343-2.964844-20.949218 5.3125-27.457031l35.261719-27.667969c-1.085937-6.933593-1.621094-14.015624-1.621094-21.164062 0-7.1875.535157-14.355469 1.621094-21.332031l-35.21875-27.5c-8.320313-6.484375-10.644531-18.304688-5.355469-27.476563l22.742188-39.402344c5.289062-9.132812 16.640625-13.058593 26.429687-9.132812l41.75 16.746094c11.03125-8.957032 23.46875-16.167969 36.523438-21.183594l6.3125-44.394531c1.496093-10.453125 10.5625-18.324219 21.121093-18.324219h45.484376c10.558593 0 19.625 7.871094 21.121093 18.324219l6.3125 44.375c13.035157 4.949219 25.34375 12.054687 36.695313 21.226562l41.554687-16.746093c9.792969-3.949219 21.183594-.023438 26.453125 9.128906l22.742188 39.425781c5.269531 9.152344 2.964844 20.949219-5.3125 27.453125l-35.261719 27.671875c1.085937 6.910156 1.621094 13.992187 1.621094 21.140625zm0 0"
  fill="#fff"/></svg>
