<svg width="143" height="35" viewBox="0 0 143 35" fill="none" xmlns="http://www.w3.org/2000/svg">
<rect x="1" y="1" width="141" height="32.1833" rx="4" stroke="#00BF82" stroke-width="2"/>
<path d="M30.1024 17.7375C28.3335 17.2291 27.0444 16.606 26.2352 15.8684C25.4331 15.1236 25.0321 14.2069 25.0321 13.1184C25.0321 11.8866 25.5226 10.8697 26.5037 10.0676C27.492 9.25838 28.7739 8.85376 30.3494 8.85376C31.4237 8.85376 32.3797 9.06144 33.2176 9.47681C34.0627 9.89217 34.7144 10.4651 35.1727 11.1956C35.6382 11.926 35.8709 12.7245 35.8709 13.5911H33.7977C33.7977 12.6458 33.4969 11.9045 32.8953 11.3674C32.2938 10.8232 31.4451 10.551 30.3494 10.551C29.3325 10.551 28.5376 10.7766 27.9647 11.2278C27.3989 11.6718 27.116 12.2913 27.116 13.0862C27.116 13.7236 27.3846 14.2642 27.9217 14.7083C28.466 15.1451 29.3862 15.5461 30.6824 15.9114C31.9858 16.2766 33.0028 16.6812 33.7332 17.1252C34.4709 17.5621 35.0151 18.0741 35.366 18.6614C35.7241 19.2486 35.9032 19.9397 35.9032 20.7346C35.9032 22.0022 35.409 23.0191 34.4207 23.7854C33.4324 24.5445 32.1112 24.9241 30.4569 24.9241C29.3826 24.9241 28.38 24.72 27.4491 24.3118C26.5181 23.8964 25.7983 23.3306 25.2899 22.6145C24.7886 21.8984 24.5379 21.0855 24.5379 20.176H26.6112C26.6112 21.1213 26.9585 21.8697 27.6532 22.4211C28.355 22.9654 29.2895 23.2375 30.4569 23.2375C31.5454 23.2375 32.3797 23.0155 32.9598 22.5715C33.5399 22.1275 33.8299 21.5224 33.8299 20.7561C33.8299 19.9898 33.5614 19.399 33.0242 18.9836C32.4871 18.5611 31.5132 18.1458 30.1024 17.7375ZM43.0682 24.9241C41.4927 24.9241 40.2108 24.4084 39.2225 23.3772C38.2342 22.3388 37.7401 20.953 37.7401 19.22V18.8547C37.7401 17.7017 37.9585 16.6741 38.3953 15.7717C38.8394 14.8622 39.4552 14.1532 40.243 13.6448C41.0379 13.1292 41.8973 12.8713 42.8211 12.8713C44.3322 12.8713 45.5067 13.3691 46.3446 14.3645C47.1824 15.3599 47.6014 16.7851 47.6014 18.6399V19.467H39.7274C39.756 20.6129 40.089 21.5403 40.7264 22.2493C41.3709 22.9511 42.1873 23.302 43.1756 23.302C43.8774 23.302 44.4718 23.1588 44.9588 22.8723C45.4458 22.5859 45.8719 22.2063 46.2371 21.7336L47.451 22.679C46.477 24.1757 45.0161 24.9241 43.0682 24.9241ZM42.8211 14.5042C42.019 14.5042 41.3459 14.7978 40.8016 15.385C40.2573 15.9651 39.9207 16.7815 39.7918 17.8342H45.6141V17.6838C45.5568 16.6741 45.2847 15.8935 44.7977 15.342C44.3107 14.7834 43.6519 14.5042 42.8211 14.5042ZM52.0701 24.7092H50.0828V8.20923H52.0701V24.7092ZM60.0838 24.9241C58.5083 24.9241 57.2264 24.4084 56.2381 23.3772C55.2498 22.3388 54.7557 20.953 54.7557 19.22V18.8547C54.7557 17.7017 54.9741 16.6741 55.411 15.7717C55.855 14.8622 56.4709 14.1532 57.2586 13.6448C58.0535 13.1292 58.9129 12.8713 59.8367 12.8713C61.3478 12.8713 62.5223 13.3691 63.3602 14.3645C64.1981 15.3599 64.617 16.7851 64.617 18.6399V19.467H56.743C56.7716 20.6129 57.1046 21.5403 57.742 22.2493C58.3866 22.9511 59.203 23.302 60.1912 23.302C60.8931 23.302 61.4875 23.1588 61.9744 22.8723C62.4614 22.5859 62.8875 22.2063 63.2528 21.7336L64.4666 22.679C63.4927 24.1757 62.0317 24.9241 60.0838 24.9241ZM59.8367 14.5042C59.0347 14.5042 58.3615 14.7978 57.8172 15.385C57.2729 15.9651 56.9364 16.7815 56.8074 17.8342H62.6297V17.6838C62.5724 16.6741 62.3003 15.8935 61.8133 15.342C61.3263 14.7834 60.6675 14.5042 59.8367 14.5042ZM71.5887 23.302C72.2977 23.302 72.9171 23.0872 73.4471 22.6575C73.977 22.2278 74.2707 21.6907 74.328 21.0461H76.2078C76.172 21.7122 75.9429 22.3459 75.5203 22.9475C75.0978 23.5491 74.5321 24.0289 73.8231 24.387C73.1213 24.745 72.3765 24.9241 71.5887 24.9241C70.006 24.9241 68.7456 24.3977 67.8074 23.345C66.8765 22.2851 66.411 20.8385 66.411 19.0051V18.6721C66.411 17.5406 66.6186 16.5344 67.034 15.6536C67.4494 14.7727 68.0438 14.0888 68.8172 13.6018C69.5978 13.1148 70.5181 12.8713 71.578 12.8713C72.8813 12.8713 73.9627 13.2616 74.8221 14.0422C75.6886 14.8228 76.1505 15.8362 76.2078 17.0823H74.328C74.2707 16.3303 73.9842 15.7144 73.4686 15.2346C72.9601 14.7476 72.3299 14.5042 71.578 14.5042C70.5682 14.5042 69.784 14.8694 69.2254 15.5999C68.674 16.3232 68.3983 17.3723 68.3983 18.7473V19.1233C68.3983 20.4625 68.674 21.4937 69.2254 22.217C69.7769 22.9403 70.5646 23.302 71.5887 23.302ZM81.1385 10.2717V13.0862H83.3084V14.6223H81.1385V21.8303C81.1385 22.2958 81.2352 22.6467 81.4285 22.8831C81.6219 23.1122 81.9513 23.2268 82.4168 23.2268C82.646 23.2268 82.9611 23.1838 83.3621 23.0979V24.7092C82.8394 24.8525 82.3309 24.9241 81.8367 24.9241C80.9487 24.9241 80.2791 24.6555 79.828 24.1184C79.3768 23.5813 79.1512 22.8186 79.1512 21.8303V14.6223H77.035V13.0862H79.1512V10.2717H81.1385ZM91.7625 24.7092V14.6223H89.9256V13.0862H91.7625V12.0979C91.7625 10.8017 92.1313 9.79191 92.869 9.0686C93.6138 8.3453 94.6629 7.98364 96.0164 7.98364C96.8185 7.98364 97.8319 8.20207 99.0565 8.63892L98.7235 10.3147C97.8283 9.95662 96.9761 9.77759 96.1668 9.77759C95.3146 9.77759 94.6987 9.97095 94.3192 10.3577C93.9468 10.7372 93.7606 11.3101 93.7606 12.0764V13.0862H96.1346V14.6223H93.7606V24.7092H91.7625ZM100.045 24.7092H98.0467V13.0862H100.045V24.7092ZM105.437 24.7092H103.45V8.20923H105.437V24.7092ZM113.451 24.9241C111.875 24.9241 110.594 24.4084 109.605 23.3772C108.617 22.3388 108.123 20.953 108.123 19.22V18.8547C108.123 17.7017 108.341 16.6741 108.778 15.7717C109.222 14.8622 109.838 14.1532 110.626 13.6448C111.421 13.1292 112.28 12.8713 113.204 12.8713C114.715 12.8713 115.889 13.3691 116.727 14.3645C117.565 15.3599 117.984 16.7851 117.984 18.6399V19.467H110.11C110.139 20.6129 110.472 21.5403 111.109 22.2493C111.754 22.9511 112.57 23.302 113.558 23.302C114.26 23.302 114.855 23.1588 115.342 22.8723C115.829 22.5859 116.255 22.2063 116.62 21.7336L117.834 22.679C116.86 24.1757 115.399 24.9241 113.451 24.9241ZM113.204 14.5042C112.402 14.5042 111.729 14.7978 111.184 15.385C110.64 15.9651 110.304 16.7815 110.175 17.8342H115.997V17.6838C115.94 16.6741 115.667 15.8935 115.18 15.342C114.694 14.7834 114.035 14.5042 113.204 14.5042Z" fill="#00BF82"/>
</svg>
