<?xml version="1.0"?>
<svg xmlns="http://www.w3.org/2000/svg" height="512px" viewBox="0 -13 512 512" width="512px"><g><path d="m503.464844 85.332031h-17.066406v-42.664062c0-9.425781-7.640626-17.066407-17.066407-17.066407s-17.066406 7.640626-17.066406 17.066407v-25.601563c0-9.425781-7.640625-17.066406-17.066406-17.066406s-17.066407 7.640625-17.066407 17.066406v68.265625h-112.496093c-1.257813-3.605469-3.292969-6.890625-5.960938-9.625-6.210937-6.183593-15.160156-8.753906-23.707031-6.796875-8.542969 1.953125-15.492188 8.152344-18.394531 16.421875h-163.707031v-68.265625c0-9.425781-7.640626-17.066406-17.066407-17.066406s-17.066406 7.640625-17.066406 17.066406v25.601563c0-9.425781-7.640625-17.066407-17.066406-17.066407s-17.066407 7.640626-17.066407 17.066407v42.664062h-17.066406c-4.714844 0-8.535156 3.820313-8.535156 8.535157 0 4.710937 3.820312 8.53125 8.535156 8.53125h17.066406v42.667968c0 9.425782 7.640626 17.066406 17.066407 17.066406s17.066406-7.640624 17.066406-17.066406v25.601563c0 9.425781 7.640625 17.066406 17.066406 17.066406s17.066407-7.640625 17.066407-17.066406v-68.269531h162.132812v72.609374c5.609375 10.476563 8.542969 22.175782 8.535156 34.058594 0 1.769532-.105468 3.535156-.320312 5.289063-1.261719 19.53125-10.511719 37.679687-25.574219 50.179687h8.824219c4.714844 0 8.535156 3.820313 8.535156 8.53125 0 4.714844-3.820312 8.535156-8.535156 8.535156h-110.929688c-6.980468-.027343-13.792968 2.113282-19.503906 6.125-13.820312 10.175782-28.792969 18.6875-44.605469 25.363282l-13.769531 5.386718c-13.117188 5.21875-19.542969 20.070313-14.367188 33.207032 2.46875 6.320312 7.351563 11.398437 13.570313 14.113281s13.261719 2.847656 19.578125.363281l13.324219-5.207031c2.4375-.953125 5.179687-.734375 7.433593.59375 2.257813 1.324219 3.78125 3.613281 4.132813 6.207031l15.105469 111.273438c.574218 4.21875 4.175781 7.367187 8.433594 7.371094h157.523437c4.355469.019531 8.019531-3.25 8.5-7.578126l15.308594-137.976562v-238.445312h110.933593v68.269531c0 9.425781 7.640626 17.066406 17.066407 17.066406s17.066406-7.640625 17.066406-17.066406v-25.601563c0 9.425782 7.640625 17.066406 17.066406 17.066406s17.066407-7.640624 17.066407-17.066406v-42.667968h17.066406c4.714844 0 8.535156-3.820313 8.535156-8.53125 0-4.714844-3.820312-8.535157-8.535156-8.535157zm0 0" data-original="#000000" class="active-path" data-old_color="#000000" fill="#FFFFFF"/><path d="m158.683594 253.242188c8.515625 6.578124 18.820312 10.429687 29.5625 11.050781 1.246094.152343 2.5.234375 3.753906.242187 29.167969.023438 53.339844-22.613281 55.226562-51.722656.152344-1.242188.230469-2.492188.238282-3.746094.082031-26.097656-18.042969-48.722656-43.53125-54.339844-25.488282-5.613281-51.445313 7.300782-62.335938 31.019532-10.894531 23.714844-3.78125 51.820312 17.085938 67.496094zm0 0" data-original="#000000" class="active-path" data-old_color="#000000" fill="#FFFFFF"/></g> </svg>
